<svg xmlns="http://www.w3.org/2000/svg" viewBox="0 0 192 192" role="img" aria-labelledby="title desc">
  <title id="title">Emuna Tarot Icon</title>
  <desc id="desc">Icono místico con luna y estrellas en tonos violeta y dorado.</desc>
  <defs>
    <linearGradient id="bg" x1="0" y1="0" x2="1" y2="1">
      <stop offset="0%" stop-color="#0b021d"/>
      <stop offset="100%" stop-color="#1a0836"/>
    </linearGradient>
    <linearGradient id="gold" x1="0" y1="0" x2="1" y2="1">
      <stop offset="0%" stop-color="#d4af37"/>
      <stop offset="100%" stop-color="#f9f295"/>
    </linearGradient>
    <filter id="glow" x="-50%" y="-50%" width="200%" height="200%">
      <feGaussianBlur stdDeviation="6" result="blur"/>
      <feMerge>
        <feMergeNode in="blur"/>
        <feMergeNode in="SourceGraphic"/>
      </feMerge>
    </filter>
  </defs>
  <rect width="192" height="192" rx="42" fill="url(#bg)"/>
  <rect x="8" y="8" width="176" height="176" rx="34" fill="none" stroke="url(#gold)" stroke-width="4"/>
  <circle cx="96" cy="88" r="34" fill="#f5f1ff" opacity="0.9" filter="url(#glow)"/>
  <circle cx="108" cy="80" r="36" fill="#0b021d" opacity="0.82"/>
  <path d="M96 126c16 0 30 10 36 24H60c6-14 20-24 36-24Z" fill="#40e0d0" opacity="0.95"/>
  <path d="M48 54l4 10 10 4-10 4-4 10-4-10-10-4 10-4 4-10Z" fill="url(#gold)"/>
  <path d="M144 40l3 7 7 3-7 3-3 7-3-7-7-3 7-3 3-7Z" fill="#a020f0"/>
</svg>